<?xml version="1.0" encoding="UTF-8" standalone="no"?>
<!-- Created with Inkscape (http://www.inkscape.org/) -->

<svg
   xmlns:dc="http://purl.org/dc/elements/1.1/"
   xmlns:cc="http://creativecommons.org/ns#"
   xmlns:rdf="http://www.w3.org/1999/02/22-rdf-syntax-ns#"
   xmlns:svg="http://www.w3.org/2000/svg"
   xmlns="http://www.w3.org/2000/svg"
   xmlns:sodipodi="http://sodipodi.sourceforge.net/DTD/sodipodi-0.dtd"
   xmlns:inkscape="http://www.inkscape.org/namespaces/inkscape"
   width="500"
   height="200"
   id="svg2"
   version="1.1"
   inkscape:version="0.48.4 r9939"
   sodipodi:docname="bf0.svg">
  <defs
     id="defs4" />
  <sodipodi:namedview
     id="base"
     pagecolor="#ffffff"
     bordercolor="#666666"
     borderopacity="1.0"
     inkscape:pageopacity="0.0"
     inkscape:pageshadow="2"
     inkscape:zoom="1.4"
     inkscape:cx="79.757701"
     inkscape:cy="97.254587"
     inkscape:document-units="px"
     inkscape:current-layer="layer1"
     showgrid="false"
     showguides="true"
     inkscape:guide-bbox="true"
     inkscape:window-width="1285"
     inkscape:window-height="744"
     inkscape:window-x="81"
     inkscape:window-y="24"
     inkscape:window-maximized="1" />
  <metadata
     id="metadata7">
    <rdf:RDF>
      <cc:Work
         rdf:about="">
        <dc:format>image/svg+xml</dc:format>
        <dc:type
           rdf:resource="http://purl.org/dc/dcmitype/StillImage" />
        <dc:title />
      </cc:Work>
    </rdf:RDF>
  </metadata>
  <g
     inkscape:label="Camada 1"
     inkscape:groupmode="layer"
     id="layer1"
     transform="translate(0,-852.36138)">
    <path
       style="fill:#241303;fill-opacity:1;stroke:#f93600;stroke-opacity:0.615942"
       d="m 10,49.285714 c 0,0 39.285714,-23.571428 34.285714,-27.857143 C 39.285714,17.142857 15,8.5714284 15,8.5714284 c 0,0 65.714286,-2.8571429 89.28571,-5 C 127.85714,1.4285712 190.71429,21.428571 186.42857,17.857143 182.14286,14.285714 160,0.7142855 160,0.7142855 160,0.7142855 192.85714,15 253.57143,15 314.28571,15 320,4.2857141 355,5.7142855 c 35,1.4285714 2.14286,12.1428575 2.14286,12.1428575 0,0 64.28571,16.428571 94.28571,6.428571 30,-10 29.28572,-12.142857 29.28572,-12.142857 0,0 -31.42858,27.142857 -20,35.714286 11.42857,8.571428 28.57142,33.571428 30,59.999997 1.42857,26.42857 1.42857,26.42857 1.42857,26.42857 0,0 -13.57143,-32.14285 -24.28572,-25 -10.71428,7.14286 -5.71428,58.57143 4.28572,65 10,6.42858 10,6.42858 10,6.42858 0,0 -43.57143,-8.57143 -58.57143,4.28571 -15,12.85714 -59.28572,10.71429 -59.28572,10.71429 l 13.57143,-8.57143 c 0,0 -45.71428,-2.14286 -43.57143,7.14285 2.14286,9.28572 -15,1.42858 -15,1.42858 0,0 -17.14285,-22.14286 -56.42857,-10 -39.28571,12.14285 -30.71428,-9.28572 -30.71428,-9.28572 L 209.28571,197.85714 215,177.14286 c 0,0 -47.85714,27.14285 -69.28571,16.42857 -21.42858,-10.71429 -43.57143,-49.28572 -43.57143,-49.28572 0,0 24.28571,30.71429 15.71428,39.28572 -8.57143,8.57143 -24.999997,-15 -29.999997,0 -5,15 10,9.28571 10,9.28571 0,0 -22.142857,10 -46.428572,2.14286 -24.285714,-7.85714 -39.285714,3.57143 -39.285714,0 0,-3.57143 20,0.71429 10,-38.57143 -10,-39.28571 -19.9999999,-67.857142 -19.9999999,-67.857142 0,0 17.1428569,20.000002 14.9999999,10.714286 C 15,90 10,60 17.142857,56.428571 24.285714,52.857143 10,49.285714 10,49.285714 z"
       id="path3013"
       inkscape:connector-curvature="0"
       transform="translate(0,852.36138)" />
    <path
       style="fill:#4a1d00;fill-opacity:1;stroke:#e09700;stroke-opacity:0.99637681000000000"
       d="M 152.14286,873.84533 C 91.630025,860.50125 -1.3003684,878.29337 37.600734,975.26045 c 38.901095,96.96715 -11.886448,40.03235 -11.886448,40.03235 0,0 7.564103,26.6882 27.014653,24.9089 19.45055,-1.7792 22.692313,-43.59069 7.564103,-80.06456 -15.128206,-36.47385 46.465188,-19.57133 46.465188,-19.57133 0,0 -15.128205,-18.68173 -30.256401,-17.79212 -15.128201,0.8896 -36.739922,-14.23371 4.32235,-32.91545 41.062271,-18.68173 71.318681,-16.01291 71.318681,-16.01291 z"
       id="path2989"
       inkscape:connector-curvature="0" />
    <path
       style="fill:#4a1d00;fill-opacity:1;stroke:#e09700;stroke-opacity:0.99637681000000000"
       d="m 131.13301,925.72897 c 10.3624,-12.86792 14.89595,-45.03773 55.05023,-36.67358 40.15429,8.36415 37.56369,93.93585 22.0201,114.52451 -15.5436,20.5886 -54.40258,36.0302 -66.70793,8.3641 -12.30535,-27.66597 8.41944,-104.23012 25.25834,-88.78861 16.83889,15.44151 19.42949,23.16226 12.953,36.03019 -6.4765,12.86793 15.54359,0.6434 12.95299,-7.72076 -2.5906,-8.36415 -3.23825,-41.82075 -22.02009,-39.24717 -18.78185,2.57359 -31.73484,9.65095 -37.56369,27.66604 -5.82885,18.0151 -31.08719,77.85091 17.48655,91.36221 48.57373,13.5113 79.01327,-23.8057 80.95622,-55.97542 1.94295,-32.16981 3.8859,-77.85094 -32.38249,-90.71887 -36.26839,-12.86792 -49.86903,-3.21698 -59.58378,10.29434 -9.71474,13.51132 -8.41945,30.88302 -8.41945,30.88302 z"
       id="path2991"
       inkscape:connector-curvature="0" />
    <path
       style="fill:#4a1d00;fill-opacity:1;stroke:#e09700;stroke-opacity:0.99637681000000000"
       d="m 344.27649,926.08271 c 10.3624,-12.86792 14.89595,-45.03773 55.05023,-36.67358 40.15429,8.36415 37.56369,93.93585 22.0201,114.52457 -15.5436,20.5886 -54.40258,36.0302 -66.70793,8.3641 -12.30535,-27.66603 8.41944,-104.23018 25.25834,-88.78867 16.83889,15.44151 19.42949,23.16226 12.953,36.03019 -6.4765,12.86793 15.54359,0.6434 12.95299,-7.72076 -2.5906,-8.36415 -3.23825,-41.82075 -22.02009,-39.24717 -18.78185,2.57359 -31.73484,9.65095 -37.56369,27.66604 -5.82885,18.0151 -31.08719,77.85097 17.48655,91.36227 48.57373,13.5113 79.01327,-23.8057 80.95622,-55.97548 1.94295,-32.16981 3.8859,-77.85094 -32.38249,-90.71887 -36.26839,-12.86792 -49.86903,-3.21698 -59.58378,10.29434 -9.71474,13.51132 -8.41945,30.88302 -8.41945,30.88302 z"
       id="path2991-3"
       inkscape:connector-curvature="0" />
    <path
       style="fill:#4a1d00;fill-opacity:1;stroke:#e09700;stroke-opacity:0.99637681000000000"
       d="m 332.85714,75.714286 c -9.28571,-23.571429 -8.57143,-17.142858 -15,-35 -6.42857,-17.857143 -64.28571,-40.0000005 -72.85714,-5 -8.57143,35 -13.57143,116.428574 5,128.571424 18.57143,12.14286 60,2.85715 62.85714,-12.85714 2.85715,-15.71428 5,-25.71428 5,-25.71428 0,0 -7.14285,55.71428 4.28572,62.85714 11.42857,7.14286 11.42857,7.14286 11.42857,7.14286 0,0 -12.14286,-12.85715 -8.57143,-47.14286 3.57143,-34.28572 6.42857,-46.42857 -5.71429,-49.285716 -12.14285,-2.857143 -41.42857,-10 -42.85714,7.857146 -1.42857,17.85714 15,21.42857 15,21.42857 0,0 -7.14286,-14.28572 2.14286,-16.42857 9.28571,-2.14286 18.57143,23.57143 3.57143,32.85714 -15,9.28571 -40.71429,14.28571 -40,-42.85714 C 257.85714,45 260,31.428571 275.71429,35.714286 291.42857,40 325.71429,70 313.57143,72.142857 c -12.14286,2.142857 -12.14286,2.142857 -12.14286,2.142857 z"
       id="path3011"
       inkscape:connector-curvature="0"
       transform="translate(0,852.36138)" />
  </g>
</svg>
