<?xml version="1.0" encoding="UTF-8" standalone="no"?>
<!-- Created with Inkscape (http://www.inkscape.org/) -->

<svg
   xmlns:dc="http://purl.org/dc/elements/1.1/"
   xmlns:cc="http://creativecommons.org/ns#"
   xmlns:rdf="http://www.w3.org/1999/02/22-rdf-syntax-ns#"
   xmlns:svg="http://www.w3.org/2000/svg"
   xmlns="http://www.w3.org/2000/svg"
   xmlns:sodipodi="http://sodipodi.sourceforge.net/DTD/sodipodi-0.dtd"
   xmlns:inkscape="http://www.inkscape.org/namespaces/inkscape"
   width="700"
   height="200"
   id="svg2"
   version="1.1"
   inkscape:version="0.48.4 r9939"
   sodipodi:docname="recomecar1.svg">
  <defs
     id="defs4" />
  <sodipodi:namedview
     id="base"
     pagecolor="#ffffff"
     bordercolor="#666666"
     borderopacity="1.0"
     inkscape:pageopacity="0.0"
     inkscape:pageshadow="2"
     inkscape:zoom="0.98994949"
     inkscape:cx="308.88436"
     inkscape:cy="70.054071"
     inkscape:document-units="px"
     inkscape:current-layer="layer1"
     showgrid="false"
     showguides="true"
     inkscape:guide-bbox="true"
     inkscape:window-width="1285"
     inkscape:window-height="744"
     inkscape:window-x="81"
     inkscape:window-y="24"
     inkscape:window-maximized="1" />
  <metadata
     id="metadata7">
    <rdf:RDF>
      <cc:Work
         rdf:about="">
        <dc:format>image/svg+xml</dc:format>
        <dc:type
           rdf:resource="http://purl.org/dc/dcmitype/StillImage" />
        <dc:title />
      </cc:Work>
    </rdf:RDF>
  </metadata>
  <g
     inkscape:label="Camada 1"
     inkscape:groupmode="layer"
     id="layer1"
     transform="translate(0,-852.36138)">
    <path
       style="fill:#241303;fill-opacity:1;stroke:#f93600;stroke-width:1.17280936;stroke-opacity:0.61594202"
       d="m 17.244817,904.38691 c 0,0 55.077772,-23.12592 48.067874,-27.33063 -7.009899,-4.20471 -41.057976,-12.61414 -41.057976,-12.61414 0,0 92.130095,-2.80314 125.176745,-4.9055 33.04667,-2.10235 121.17112,17.51964 115.16263,14.01571 -6.00848,-3.50393 -37.05232,-16.81885 -37.05232,-16.81885 0,0 46.06505,14.01571 131.18524,14.01571 85.12019,0 93.13151,-10.51179 142.2008,-9.11021 49.06929,1.40157 3.00425,11.91335 3.00425,11.91335 0,0 90.12725,16.11807 132.18664,6.30707 42.0594,-9.811 41.05799,-11.91335 41.05799,-11.91335 0,0 -44.06223,26.62984 -28.03959,35.03927 16.02262,8.40942 40.05655,32.93692 42.05938,58.86598 2.00283,25.92906 2.00283,25.92906 2.00283,25.92906 0,0 -19.02686,-31.53534 -34.04809,-24.5275 -15.0212,7.00787 -8.0113,57.46442 6.0085,63.77152 14.01979,6.3071 14.01979,6.3071 14.01979,6.3071 0,0 -61.08626,-8.4095 -82.11595,4.2046 -21.02969,12.6142 -83.11738,10.5118 -83.11738,10.5118 l 19.02687,-8.4094 c 0,0 -64.09049,-2.1024 -61.08626,7.0078 3.00425,9.1103 -21.02969,1.4016 -21.02969,1.4016 0,0 -24.03393,-21.7244 -79.11171,-9.8109 -55.07776,11.9133 -43.0608,-9.1103 -43.0608,-9.1103 l -32.04526,21.0236 8.01132,-20.3228 c 0,0 -67.09473,26.6299 -97.13715,16.1181 -30.04244,-10.5118 -61.08626,-48.35423 -61.08626,-48.35423 0,0 34.04807,30.13383 22.0311,38.54323 -12.01698,8.4094 -35.04949,-14.7165 -42.05939,0 -7.0099,14.7165 14.01979,9.1102 14.01979,9.1102 0,0 -31.04383,9.811 -65.091909,2.1024 -34.048077,-7.7087 -55.077773,3.5039 -55.077773,0 0,-3.504 28.039595,0.7007 14.019798,-37.8424 C 20.249058,970.96154 6.2292618,942.93011 6.2292618,942.93011 c 0,0 24.0339372,19.62199 21.0296952,10.51179 -3.004242,-9.11021 -10.01414,-38.54321 0,-42.04714 10.01414,-3.50392 -10.01414,-7.00785 -10.01414,-7.00785 z"
       id="path3013"
       inkscape:connector-curvature="0" />
    <path
       style="fill:#ff0707;fill-opacity:1;stroke:#ff9406;stroke-width:2.23499999999999988;stroke-opacity:1;stroke-miterlimit:4;stroke-dasharray:none"
       d="m 506.4206,940.36827 c 9.7146,-8.80821 13.96473,-30.82879 51.60878,-25.10342 37.64406,5.72536 35.21541,64.30009 20.64353,78.39329 -14.5719,14.09326 -51.00163,24.66316 -62.53771,5.7254 -11.53609,-18.93772 7.8931,-71.34676 23.67933,-60.77691 15.7862,10.56996 18.21485,15.85489 12.14324,24.66309 -6.07163,8.80821 14.57188,0.44044 12.14324,-5.28492 -2.42865,-5.72536 -3.03582,-28.62682 -20.64352,-26.86518 -17.60771,1.76176 -29.75095,6.60624 -35.21541,18.93773 -5.46446,12.33161 -29.14378,53.28995 16.39339,62.53855 45.53716,9.2486 74.07378,-16.29536 75.89527,-38.31589 1.82149,-22.02057 3.64297,-53.2898 -30.35811,-62.09801 -34.00109,-8.80821 -46.75148,-2.20208 -55.85892,7.04657 -9.10743,9.24865 -7.89311,21.1397 -7.89311,21.1397 z"
       id="path2991-3"
       inkscape:connector-curvature="0" />
    <path
       style="fill:#ff0707;fill-opacity:1;stroke:#ff9406;stroke-width:1.79999994999999990;stroke-miterlimit:4;stroke-opacity:1;stroke-dasharray:none"
       d="m 43.487322,901.93531 c 0,0 17.172593,7.57614 18.182746,19.1929 1.010153,11.61675 6.565991,68.69037 -5.050763,76.77159 -11.616754,8.0812 -24.748737,11.1117 -11.616754,13.637 13.131983,2.5254 66.164989,24.7488 91.923879,-28.28421 25.75889,-53.03301 4.04061,-89.3985 -12.6269,-91.41881 -16.66752,-2.0203 -52.02286,11.11168 -47.98225,17.67767 4.04061,6.566 38.3858,-10.10152 44.44671,8.08122 6.06092,18.18275 12.62691,66.67007 -4.04061,76.26652 -16.66752,9.59641 -27.274117,-4.54569 -37.880719,1.51523 -10.606602,6.06088 -12.12183,6.06088 -12.12183,6.06088 0,0 19.192898,-9.09134 19.192898,-29.79946 0,-20.70813 -17.67767,-62.12439 -12.121831,-66.67007 5.555839,-4.54569 8.081221,-7.07107 2.525382,-7.57615 -5.555839,-0.50507 -22.223356,-1.51523 -32.829958,4.54569 z"
       id="path3005"
       inkscape:connector-curvature="0" />
    <path
       style="fill:#ff0707;fill-opacity:1;stroke:#ff9406;stroke-width:1.68466805999999991;stroke-miterlimit:4;stroke-opacity:1;stroke-dasharray:none"
       d="m 220.33946,890.4778 c -5.49704,-2.27645 -35.33809,6.26022 -46.33218,0 -10.99406,-6.26022 -11.38671,-10.81312 -13.34994,4.55289 -1.96323,15.366 -0.78529,99.59443 5.88968,105.28551 6.67497,5.6912 46.72482,15.366 54.97037,11.3822 8.24556,-3.9838 20.81021,-22.7644 5.49704,-22.7644 -15.31317,0 -4.71175,12.5205 -19.63227,6.82934 -14.92053,-5.69111 -34.16017,-16.50421 -31.41165,-35.85401 2.74852,-19.34977 32.19694,-6.82932 37.30133,-11.95132 5.10439,-5.12199 5.10439,-5.12199 5.10439,-5.12199 0,0 -16.09847,0.5691 -27.48519,-6.82934 -11.38671,-7.39844 -15.31317,0.56912 -15.31317,0.56912 0,0 -9.42349,-27.31733 -0.78529,-29.59379 8.6382,-2.27644 34.5528,2.84556 39.26455,-4.55288 4.71175,-7.39844 6.28233,-11.95133 6.28233,-11.95133 z"
       id="path3007"
       inkscape:connector-curvature="0" />
    <path
       style="fill:#ff0707;fill-opacity:1;stroke:#ff9406;stroke-width:1.98449230000000010;stroke-miterlimit:4;stroke-opacity:1;stroke-dasharray:none"
       d="m 240.51727,894.20299 c 0,0 2.5407,109.83881 15.24423,109.83881 12.70353,0 13.21167,4.8817 8.13026,-22.57794 -5.08141,-27.45972 -14.22795,-78.71786 -3.04885,-70.78504 11.17911,7.93281 36.07802,92.14248 50.30597,96.41408 14.22795,4.2715 11.68725,-0.6102 12.19539,-13.42473 0.50814,-12.81453 -10.67097,-84.20979 -2.03257,-91.53237 8.6384,-7.3226 9.14654,-6.71238 2.54071,-6.71238 -6.60584,0 -38.11058,-10.98388 -33.53731,0.61022 4.57326,11.5941 15.24423,15.86561 15.24423,30.51079 0,14.64518 8.13026,53.69899 -1.01629,36.00274 -9.14653,-17.69626 -27.43962,-74.44635 -44.71641,-76.8872 -17.27679,-2.44087 -19.30936,8.54302 -19.30936,8.54302 z"
       id="path3009"
       inkscape:connector-curvature="0" />
    <path
       style="fill:#ff0707;fill-opacity:1;stroke:#ff9406;stroke-width:2.23499999999999988;stroke-miterlimit:4;stroke-opacity:1;stroke-dasharray:none"
       d="m 420.576,905.92498 c 6.81353,-6.23598 15.89825,-10.39331 19.87283,2.77156 3.97456,13.16487 -14.76267,101.85456 14.76267,106.01176 29.52535,4.1574 26.68637,-110.16909 53.37274,-115.0193 26.68637,-4.85022 0,-9.70043 -10.22031,-5.5431 -10.22031,4.15732 -40.31346,72.06031 -40.31346,87.99674 0,15.93642 0,15.93642 0,15.93642 0,0 1.1356,-90.07541 -12.49148,-99.77584 -13.6271,-9.70042 -24.98299,7.62176 -24.98299,7.62176 z"
       id="path3012"
       inkscape:connector-curvature="0" />
    <path
       style="fill:#ff0707;fill-opacity:1;stroke:#ff9406;stroke-width:2.00583935000000002;stroke-miterlimit:4;stroke-opacity:1;stroke-dasharray:none"
       d="m 341.96527,933.01294 c 7.66276,-8.99425 11.01521,-31.47993 40.70836,-25.63364 29.69316,5.84629 27.77747,65.65819 16.28335,80.04906 -11.49413,14.39094 -40.22944,25.18404 -49.32895,5.84629 -9.09953,-19.33767 6.22597,-72.85366 18.67795,-62.06056 12.45196,10.79321 14.36765,16.18977 9.57844,25.18401 -4.78923,8.99425 11.49411,0.44974 9.57843,-5.39655 -1.91569,-5.84628 -2.39461,-29.23145 -16.28335,-27.4326 -13.88874,1.79897 -23.46717,6.74577 -27.77747,19.33771 -4.31029,12.59207 -22.98824,54.41551 12.9309,63.85944 35.91914,9.4439 58.42847,-16.63956 59.86523,-39.12516 1.43677,-22.48567 2.87353,-54.41535 -23.94609,-63.4096 -26.81963,-8.99425 -36.87698,-2.24859 -44.06081,7.1954 -7.18383,9.444 -6.22599,21.5862 -6.22599,21.5862 z"
       id="path2991-3-6"
       inkscape:connector-curvature="0" />
    <path
       style="fill:#ff0707;fill-opacity:1;stroke:#ff9406;stroke-width:2.23499990000000004;stroke-miterlimit:4;stroke-opacity:1;stroke-dasharray:none"
       d="m 628.31488,1011.4502 c 10.6066,-8.5863 12.12183,-16.66752 3.03046,-19.69797 -9.09138,-3.03046 -25.25382,-3.03046 -21.71828,4.54568 3.53553,7.57619 1.51523,13.13199 8.58629,14.14219 7.07107,1.0101 10.10153,1.0101 10.10153,1.0101 z"
       id="path3800"
       inkscape:connector-curvature="0" />
    <path
       style="fill:#ff0707;fill-opacity:1;stroke:#ff9406;stroke-width:2.08040570999999996;stroke-miterlimit:4;stroke-opacity:1;stroke-dasharray:none"
       d="m 627.33315,969.59318 c 2.18458,-1.01178 16.16591,-78.91891 11.79674,-81.95426 -4.36917,-3.03534 -16.16591,-9.61192 -19.66124,-3.54123 -3.49534,6.07068 -6.11684,74.36591 -3.05842,82.46016 3.05842,8.09425 3.93225,12.64725 7.8645,10.6237 3.93225,-2.02357 3.05842,-7.58837 3.05842,-7.58837 z"
       id="path3802"
       inkscape:connector-curvature="0" />
  </g>
</svg>
